<?xml version="1.0" encoding="iso-8859-1"?>
<!-- Uploaded to: SVG Repo, www.svgrepo.com, Generator: SVG Repo Mixer Tools -->
<!DOCTYPE svg PUBLIC "-//W3C//DTD SVG 1.1//EN" "http://www.w3.org/Graphics/SVG/1.1/DTD/svg11.dtd">
<svg fill="#000000" height="800px" width="800px" version="1.1" id="Capa_1" xmlns="http://www.w3.org/2000/svg" xmlns:xlink="http://www.w3.org/1999/xlink" 
	 viewBox="0 0 456.538 456.538" xml:space="preserve">
<g>
	<path d="M395.913,0H60.625c-5.523,0-10,4.477-10,10v436.538c0,5.523,4.477,10,10,10h335.288c5.523,0,10-4.477,10-10V10
		C405.913,4.477,401.436,0,395.913,0z M70.625,20h16.517v416.538H70.625V20z M385.913,436.538H107.142V20h278.771V436.538z"/>
	<path d="M164.099,187.109h50.85V377.95c0,5.523,4.477,10,10,10h43.156c5.523,0,10-4.477,10-10V187.109h50.85
		c5.523,0,10-4.477,10-10v-43.156c0-5.523-4.477-10-10-10h-50.85V78.588c0-5.523-4.477-10-10-10h-43.156c-5.523,0-10,4.477-10,10
		v45.365h-50.85c-5.523,0-10,4.477-10,10v43.156C154.099,182.632,158.576,187.109,164.099,187.109z M174.099,143.953h50.85
		c5.523,0,10-4.477,10-10V88.588h23.156v45.365c0,5.523,4.477,10,10,10h50.85v23.156h-50.85c-5.523,0-10,4.477-10,10V367.95h-23.156
		V177.109c0-5.523-4.477-10-10-10h-50.85V143.953z"/>
</g>
</svg>